<?xml version="1.0" encoding="utf-8"?>
<!-- Generator: Adobe Illustrator 26.0.2, SVG Export Plug-In . SVG Version: 6.00 Build 0)  -->
<svg version="1.1" id="圖層_1" xmlns="http://www.w3.org/2000/svg" xmlns:xlink="http://www.w3.org/1999/xlink" x="0px" y="0px"
	 viewBox="0 0 24 24" style="enable-background:new 0 0 24 24;" xml:space="preserve">
<style type="text/css">
	.st0{fill:none;}
</style>
<rect class="st0" width="24" height="24"/>
<g>
	<circle cx="12" cy="12" r="2"/>
	<path d="M9.2,15.6c-0.7,0.3-1.2,1-1.2,1.8V18h8v-0.6c0-0.8-0.5-1.5-1.2-1.8C13.9,15.2,13,15,12,15S10.1,15.2,9.2,15.6z"/>
	<path d="M14,2H6C4.9,2,4,2.9,4,4l0,16c0,1.1,0.9,2,2,2h12c1.1,0,2-0.9,2-2V8L14,2z M18,20H6V4h7v5h5V20z"/>
</g>
</svg>
